<svg version="1.1" id="Layer_1" xmlns="http://www.w3.org/2000/svg" x="0" y="0" viewBox="0 0 122.88 83.21" style="enable-background:new 0 0 122.88 83.21" xml:space="preserve"><path d="M107.68 12.35c0-4.2 3.4-7.6 7.6-7.6 4.2 0 7.6 3.4 7.6 7.6v58.52c0 4.2-3.4 7.6-7.6 7.6-4.2 0-7.6-3.4-7.6-7.6V12.35zm-20.5 34.09L59.74 80.39c-2.62 3.26-7.4 3.78-10.66 1.16s-3.78-7.4-1.16-10.66l17.55-21.7-57.9.01a7.571 7.571 0 0 1 0-15.14l57.91-.02-17.55-21.71c-2.62-3.26-2.1-8.03 1.16-10.66 3.26-2.62 8.03-2.1 10.66 1.16l27.44 33.95.06.08.24.31.04.06.07.1.04.05.07.11.1.16.03.04.07.12.02.04.07.13.02.04.07.13.02.03.07.14.01.03.07.14.01.03.06.14.01.02.06.15.01.02.05.15v.02l.11.33v.01l.1.34v.01l.04.17v.01l.04.17v.01l.03.17.03.18.02.18.02.18.02.18.01.18.01.18v.54l-.01.18-.01.18-.02.18-.02.18-.02.18-.03.18-.03.17v.01l-.04.17v.01l-.04.17v.01l-.1.34v.01l-.11.33v.02l-.06.15-.01.02-.06.15-.01.02-.06.14-.01.03-.07.14-.01.03-.07.14-.02.03-.07.13-.02.04-.07.13-.02.07-.07.12-.03.04-.1.16-.07.11-.04.05-.07.1-.04.06-.24.31-.06.09z"/></svg>